<mxfile host="app.diagrams.net" modified="2020-07-24T16:17:44.536Z" agent="5.0 (X11; Linux x86_64) AppleWebKit/537.36 (KHTML, like Gecko) Chrome/74.0.3729.169 Safari/537.36" etag="gdN4UEnOOZQtYP5qHrwS" version="13.5.3" type="github">
  <diagram id="3djbxQUewnVQCDs2TuvC" name="Page-1">
    <mxGraphModel dx="1355" dy="806" grid="1" gridSize="10" guides="1" tooltips="1" connect="1" arrows="1" fold="1" page="1" pageScale="1" pageWidth="850" pageHeight="1100" math="1" shadow="0">
      <root>
        <mxCell id="0" />
        <mxCell id="1" parent="0" />
        <mxCell id="JYchThaX2a4gKTv78fk3-125" style="edgeStyle=orthogonalEdgeStyle;rounded=0;orthogonalLoop=1;jettySize=auto;html=1;fontFamily=Times New Roman;fontSize=12;" edge="1" parent="1" source="JYchThaX2a4gKTv78fk3-122">
          <mxGeometry relative="1" as="geometry">
            <mxPoint x="720" y="121.99000000000001" as="targetPoint" />
          </mxGeometry>
        </mxCell>
        <mxCell id="JYchThaX2a4gKTv78fk3-122" value="" style="ellipse;whiteSpace=wrap;html=1;fontFamily=Times New Roman;fontSize=12;rotation=90;labelBorderColor=none;dashed=1;" vertex="1" parent="1">
          <mxGeometry x="575" y="81.99000000000001" width="120" height="80" as="geometry" />
        </mxCell>
        <mxCell id="JYchThaX2a4gKTv78fk3-37" value="" style="group" vertex="1" connectable="0" parent="1">
          <mxGeometry x="40" y="80" width="200" height="130" as="geometry" />
        </mxCell>
        <mxCell id="JYchThaX2a4gKTv78fk3-36" value="Population" style="ellipse;whiteSpace=wrap;html=1;fontFamily=Times New Roman;fontSize=14;labelPosition=center;verticalLabelPosition=bottom;align=center;verticalAlign=top;" vertex="1" parent="JYchThaX2a4gKTv78fk3-37">
          <mxGeometry width="200" height="130" as="geometry" />
        </mxCell>
        <mxCell id="JYchThaX2a4gKTv78fk3-32" value="Individual 1" style="ellipse;whiteSpace=wrap;html=1;fontFamily=Times New Roman;fontSize=12;fillColor=#ffff88;strokeColor=#36393d;" vertex="1" parent="JYchThaX2a4gKTv78fk3-37">
          <mxGeometry x="20" y="30" width="70" height="40" as="geometry" />
        </mxCell>
        <mxCell id="JYchThaX2a4gKTv78fk3-33" value="Individual 2" style="ellipse;whiteSpace=wrap;html=1;fontFamily=Times New Roman;fontSize=12;fillColor=#ffcc99;strokeColor=#36393d;" vertex="1" parent="JYchThaX2a4gKTv78fk3-37">
          <mxGeometry x="110" y="30" width="70" height="40" as="geometry" />
        </mxCell>
        <mxCell id="JYchThaX2a4gKTv78fk3-34" value="Individual 3" style="ellipse;whiteSpace=wrap;html=1;fontFamily=Times New Roman;fontSize=12;fillColor=#cce5ff;strokeColor=#36393d;" vertex="1" parent="JYchThaX2a4gKTv78fk3-37">
          <mxGeometry x="60" y="80" width="70" height="40" as="geometry" />
        </mxCell>
        <mxCell id="JYchThaX2a4gKTv78fk3-38" value="" style="group;rotation=-1;" vertex="1" connectable="0" parent="1">
          <mxGeometry x="440" y="78.99" width="10" height="120.01" as="geometry" />
        </mxCell>
        <mxCell id="JYchThaX2a4gKTv78fk3-39" value="" style="endArrow=none;html=1;" edge="1" parent="JYchThaX2a4gKTv78fk3-38">
          <mxGeometry width="50" height="50" relative="1" as="geometry">
            <mxPoint x="1" y="120.00999999999999" as="sourcePoint" />
            <mxPoint x="-1" as="targetPoint" />
          </mxGeometry>
        </mxCell>
        <mxCell id="JYchThaX2a4gKTv78fk3-40" value="" style="endArrow=none;html=1;" edge="1" parent="JYchThaX2a4gKTv78fk3-38">
          <mxGeometry width="50" height="50" relative="1" as="geometry">
            <mxPoint x="1" y="120.00999999999999" as="sourcePoint" />
            <mxPoint x="11" y="120.00999999999999" as="targetPoint" />
          </mxGeometry>
        </mxCell>
        <mxCell id="JYchThaX2a4gKTv78fk3-41" value="" style="endArrow=none;html=1;" edge="1" parent="JYchThaX2a4gKTv78fk3-38">
          <mxGeometry width="50" height="50" relative="1" as="geometry">
            <mxPoint x="-1" as="sourcePoint" />
            <mxPoint x="9" as="targetPoint" />
          </mxGeometry>
        </mxCell>
        <mxCell id="JYchThaX2a4gKTv78fk3-42" value="" style="group" vertex="1" connectable="0" parent="1">
          <mxGeometry x="320" y="80" width="40" height="120" as="geometry" />
        </mxCell>
        <mxCell id="JYchThaX2a4gKTv78fk3-16" value="" style="endArrow=none;html=1;" edge="1" parent="JYchThaX2a4gKTv78fk3-42">
          <mxGeometry width="50" height="50" relative="1" as="geometry">
            <mxPoint y="120" as="sourcePoint" />
            <mxPoint as="targetPoint" />
          </mxGeometry>
        </mxCell>
        <mxCell id="JYchThaX2a4gKTv78fk3-17" value="" style="endArrow=none;html=1;" edge="1" parent="JYchThaX2a4gKTv78fk3-42">
          <mxGeometry width="50" height="50" relative="1" as="geometry">
            <mxPoint y="120" as="sourcePoint" />
            <mxPoint x="10" y="120" as="targetPoint" />
          </mxGeometry>
        </mxCell>
        <mxCell id="JYchThaX2a4gKTv78fk3-18" value="" style="endArrow=none;html=1;" edge="1" parent="JYchThaX2a4gKTv78fk3-42">
          <mxGeometry width="50" height="50" relative="1" as="geometry">
            <mxPoint as="sourcePoint" />
            <mxPoint x="10" as="targetPoint" />
          </mxGeometry>
        </mxCell>
        <mxCell id="JYchThaX2a4gKTv78fk3-22" value="" style="group;rotation=-180;" vertex="1" connectable="0" parent="JYchThaX2a4gKTv78fk3-42">
          <mxGeometry x="30" width="10" height="120" as="geometry" />
        </mxCell>
        <mxCell id="JYchThaX2a4gKTv78fk3-19" value="" style="endArrow=none;html=1;" edge="1" parent="JYchThaX2a4gKTv78fk3-22">
          <mxGeometry width="50" height="50" relative="1" as="geometry">
            <mxPoint x="10" as="sourcePoint" />
            <mxPoint x="10" y="120" as="targetPoint" />
          </mxGeometry>
        </mxCell>
        <mxCell id="JYchThaX2a4gKTv78fk3-20" value="" style="endArrow=none;html=1;" edge="1" parent="JYchThaX2a4gKTv78fk3-22">
          <mxGeometry width="50" height="50" relative="1" as="geometry">
            <mxPoint x="10" as="sourcePoint" />
            <mxPoint as="targetPoint" />
          </mxGeometry>
        </mxCell>
        <mxCell id="JYchThaX2a4gKTv78fk3-21" value="" style="endArrow=none;html=1;" edge="1" parent="JYchThaX2a4gKTv78fk3-22">
          <mxGeometry width="50" height="50" relative="1" as="geometry">
            <mxPoint x="10" y="120" as="sourcePoint" />
            <mxPoint y="120" as="targetPoint" />
          </mxGeometry>
        </mxCell>
        <mxCell id="JYchThaX2a4gKTv78fk3-23" value="" style="endArrow=none;dashed=1;html=1;dashPattern=1 3;strokeWidth=2;" edge="1" parent="JYchThaX2a4gKTv78fk3-42">
          <mxGeometry width="50" height="50" relative="1" as="geometry">
            <mxPoint x="20" y="30" as="sourcePoint" />
            <mxPoint x="20" y="10" as="targetPoint" />
          </mxGeometry>
        </mxCell>
        <mxCell id="JYchThaX2a4gKTv78fk3-25" value="" style="endArrow=none;dashed=1;html=1;dashPattern=1 3;strokeWidth=2;" edge="1" parent="JYchThaX2a4gKTv78fk3-42">
          <mxGeometry width="50" height="50" relative="1" as="geometry">
            <mxPoint x="20" y="70" as="sourcePoint" />
            <mxPoint x="20" y="50" as="targetPoint" />
          </mxGeometry>
        </mxCell>
        <mxCell id="JYchThaX2a4gKTv78fk3-26" value="" style="endArrow=none;dashed=1;html=1;dashPattern=1 3;strokeWidth=2;" edge="1" parent="JYchThaX2a4gKTv78fk3-42">
          <mxGeometry width="50" height="50" relative="1" as="geometry">
            <mxPoint x="20" y="110" as="sourcePoint" />
            <mxPoint x="20" y="90" as="targetPoint" />
          </mxGeometry>
        </mxCell>
        <mxCell id="JYchThaX2a4gKTv78fk3-43" value="" style="shape=curlyBracket;whiteSpace=wrap;html=1;rounded=1;fontFamily=Times New Roman;fontSize=12;" vertex="1" parent="1">
          <mxGeometry x="301" y="90" width="10" height="19.99" as="geometry" />
        </mxCell>
        <mxCell id="JYchThaX2a4gKTv78fk3-46" value="" style="shape=curlyBracket;whiteSpace=wrap;html=1;rounded=1;fontFamily=Times New Roman;fontSize=12;" vertex="1" parent="1">
          <mxGeometry x="300" y="129" width="10" height="19.99" as="geometry" />
        </mxCell>
        <mxCell id="JYchThaX2a4gKTv78fk3-48" value="" style="shape=curlyBracket;whiteSpace=wrap;html=1;rounded=1;fontFamily=Times New Roman;fontSize=12;" vertex="1" parent="1">
          <mxGeometry x="300" y="170" width="10" height="19.99" as="geometry" />
        </mxCell>
        <mxCell id="JYchThaX2a4gKTv78fk3-51" value="$$\dot{x}_1$$" style="text;html=1;align=center;verticalAlign=middle;resizable=0;points=[];autosize=1;fontSize=12;fontFamily=Times New Roman;" vertex="1" parent="1">
          <mxGeometry x="240" y="89.99000000000001" width="90" height="20" as="geometry" />
        </mxCell>
        <mxCell id="JYchThaX2a4gKTv78fk3-53" value="$$\dot{x}_2$$" style="text;html=1;align=center;verticalAlign=middle;resizable=0;points=[];autosize=1;fontSize=12;fontFamily=Times New Roman;" vertex="1" parent="1">
          <mxGeometry x="240" y="130" width="90" height="20" as="geometry" />
        </mxCell>
        <mxCell id="JYchThaX2a4gKTv78fk3-54" value="$$\dot{x}_3$$" style="text;html=1;align=center;verticalAlign=middle;resizable=0;points=[];autosize=1;fontSize=12;fontFamily=Times New Roman;" vertex="1" parent="1">
          <mxGeometry x="240" y="169.99" width="90" height="20" as="geometry" />
        </mxCell>
        <mxCell id="JYchThaX2a4gKTv78fk3-56" value="$$=$$" style="text;html=1;align=center;verticalAlign=middle;resizable=0;points=[];autosize=1;fontSize=12;fontFamily=Times New Roman;" vertex="1" parent="1">
          <mxGeometry x="347" y="130.01" width="50" height="20" as="geometry" />
        </mxCell>
        <mxCell id="JYchThaX2a4gKTv78fk3-57" value="" style="shape=curlyBracket;whiteSpace=wrap;html=1;rounded=1;fontFamily=Times New Roman;fontSize=12;" vertex="1" parent="1">
          <mxGeometry x="420" y="168.98000000000002" width="10" height="19.99" as="geometry" />
        </mxCell>
        <mxCell id="JYchThaX2a4gKTv78fk3-59" value="" style="shape=curlyBracket;whiteSpace=wrap;html=1;rounded=1;fontFamily=Times New Roman;fontSize=12;" vertex="1" parent="1">
          <mxGeometry x="420" y="129.01000000000002" width="10" height="19.99" as="geometry" />
        </mxCell>
        <mxCell id="JYchThaX2a4gKTv78fk3-60" value="" style="shape=curlyBracket;whiteSpace=wrap;html=1;rounded=1;fontFamily=Times New Roman;fontSize=12;" vertex="1" parent="1">
          <mxGeometry x="420" y="88.98" width="10" height="19.99" as="geometry" />
        </mxCell>
        <mxCell id="JYchThaX2a4gKTv78fk3-61" value="$$\Theta(\pmb{X}_1)$$" style="text;html=1;align=center;verticalAlign=middle;resizable=0;points=[];autosize=1;fontSize=12;fontFamily=Times New Roman;" vertex="1" parent="1">
          <mxGeometry x="330" y="89.99" width="140" height="20" as="geometry" />
        </mxCell>
        <mxCell id="JYchThaX2a4gKTv78fk3-62" value="$$\Theta(\pmb{X}_3)$$" style="text;html=1;align=center;verticalAlign=middle;resizable=0;points=[];autosize=1;fontSize=12;fontFamily=Times New Roman;" vertex="1" parent="1">
          <mxGeometry x="330" y="170" width="140" height="20" as="geometry" />
        </mxCell>
        <mxCell id="JYchThaX2a4gKTv78fk3-63" value="$$\Theta(\pmb{X}_2)$$" style="text;html=1;align=center;verticalAlign=middle;resizable=0;points=[];autosize=1;fontSize=12;fontFamily=Times New Roman;" vertex="1" parent="1">
          <mxGeometry x="330" y="129.01" width="140" height="20" as="geometry" />
        </mxCell>
        <mxCell id="JYchThaX2a4gKTv78fk3-68" value="" style="group" vertex="1" connectable="0" parent="1">
          <mxGeometry x="460" y="90" height="100" as="geometry" />
        </mxCell>
        <mxCell id="JYchThaX2a4gKTv78fk3-65" value="" style="endArrow=none;dashed=1;html=1;dashPattern=1 3;strokeWidth=2;fontFamily=Times New Roman;fontSize=12;" edge="1" parent="JYchThaX2a4gKTv78fk3-68">
          <mxGeometry width="50" height="50" relative="1" as="geometry">
            <mxPoint as="sourcePoint" />
            <mxPoint y="20" as="targetPoint" />
          </mxGeometry>
        </mxCell>
        <mxCell id="JYchThaX2a4gKTv78fk3-66" value="" style="endArrow=none;dashed=1;html=1;dashPattern=1 3;strokeWidth=2;fontFamily=Times New Roman;fontSize=12;" edge="1" parent="JYchThaX2a4gKTv78fk3-68">
          <mxGeometry width="50" height="50" relative="1" as="geometry">
            <mxPoint y="60" as="sourcePoint" />
            <mxPoint y="40" as="targetPoint" />
          </mxGeometry>
        </mxCell>
        <mxCell id="JYchThaX2a4gKTv78fk3-67" value="" style="endArrow=none;dashed=1;html=1;dashPattern=1 3;strokeWidth=2;fontFamily=Times New Roman;fontSize=12;" edge="1" parent="JYchThaX2a4gKTv78fk3-68">
          <mxGeometry width="50" height="50" relative="1" as="geometry">
            <mxPoint y="100" as="sourcePoint" />
            <mxPoint y="80" as="targetPoint" />
          </mxGeometry>
        </mxCell>
        <mxCell id="JYchThaX2a4gKTv78fk3-69" value="" style="group" vertex="1" connectable="0" parent="1">
          <mxGeometry x="480" y="90" height="100" as="geometry" />
        </mxCell>
        <mxCell id="JYchThaX2a4gKTv78fk3-70" value="" style="endArrow=none;dashed=1;html=1;dashPattern=1 3;strokeWidth=2;fontFamily=Times New Roman;fontSize=12;" edge="1" parent="JYchThaX2a4gKTv78fk3-69">
          <mxGeometry width="50" height="50" relative="1" as="geometry">
            <mxPoint as="sourcePoint" />
            <mxPoint y="20" as="targetPoint" />
          </mxGeometry>
        </mxCell>
        <mxCell id="JYchThaX2a4gKTv78fk3-71" value="" style="endArrow=none;dashed=1;html=1;dashPattern=1 3;strokeWidth=2;fontFamily=Times New Roman;fontSize=12;" edge="1" parent="JYchThaX2a4gKTv78fk3-69">
          <mxGeometry width="50" height="50" relative="1" as="geometry">
            <mxPoint y="60" as="sourcePoint" />
            <mxPoint y="40" as="targetPoint" />
          </mxGeometry>
        </mxCell>
        <mxCell id="JYchThaX2a4gKTv78fk3-72" value="" style="endArrow=none;dashed=1;html=1;dashPattern=1 3;strokeWidth=2;fontFamily=Times New Roman;fontSize=12;" edge="1" parent="JYchThaX2a4gKTv78fk3-69">
          <mxGeometry width="50" height="50" relative="1" as="geometry">
            <mxPoint y="100" as="sourcePoint" />
            <mxPoint y="80" as="targetPoint" />
          </mxGeometry>
        </mxCell>
        <mxCell id="JYchThaX2a4gKTv78fk3-73" value="" style="group" vertex="1" connectable="0" parent="1">
          <mxGeometry x="540" y="90" height="100" as="geometry" />
        </mxCell>
        <mxCell id="JYchThaX2a4gKTv78fk3-74" value="" style="endArrow=none;dashed=1;html=1;dashPattern=1 3;strokeWidth=2;fontFamily=Times New Roman;fontSize=12;" edge="1" parent="JYchThaX2a4gKTv78fk3-73">
          <mxGeometry width="50" height="50" relative="1" as="geometry">
            <mxPoint as="sourcePoint" />
            <mxPoint y="20" as="targetPoint" />
          </mxGeometry>
        </mxCell>
        <mxCell id="JYchThaX2a4gKTv78fk3-75" value="" style="endArrow=none;dashed=1;html=1;dashPattern=1 3;strokeWidth=2;fontFamily=Times New Roman;fontSize=12;" edge="1" parent="JYchThaX2a4gKTv78fk3-73">
          <mxGeometry width="50" height="50" relative="1" as="geometry">
            <mxPoint y="60" as="sourcePoint" />
            <mxPoint y="40" as="targetPoint" />
          </mxGeometry>
        </mxCell>
        <mxCell id="JYchThaX2a4gKTv78fk3-76" value="" style="endArrow=none;dashed=1;html=1;dashPattern=1 3;strokeWidth=2;fontFamily=Times New Roman;fontSize=12;" edge="1" parent="JYchThaX2a4gKTv78fk3-73">
          <mxGeometry width="50" height="50" relative="1" as="geometry">
            <mxPoint y="100" as="sourcePoint" />
            <mxPoint y="80" as="targetPoint" />
          </mxGeometry>
        </mxCell>
        <mxCell id="JYchThaX2a4gKTv78fk3-77" value="" style="group" vertex="1" connectable="0" parent="1">
          <mxGeometry x="520" y="90" height="100" as="geometry" />
        </mxCell>
        <mxCell id="JYchThaX2a4gKTv78fk3-78" value="" style="endArrow=none;dashed=1;html=1;dashPattern=1 3;strokeWidth=2;fontFamily=Times New Roman;fontSize=12;" edge="1" parent="JYchThaX2a4gKTv78fk3-77">
          <mxGeometry width="50" height="50" relative="1" as="geometry">
            <mxPoint as="sourcePoint" />
            <mxPoint y="20" as="targetPoint" />
          </mxGeometry>
        </mxCell>
        <mxCell id="JYchThaX2a4gKTv78fk3-79" value="" style="endArrow=none;dashed=1;html=1;dashPattern=1 3;strokeWidth=2;fontFamily=Times New Roman;fontSize=12;" edge="1" parent="JYchThaX2a4gKTv78fk3-77">
          <mxGeometry width="50" height="50" relative="1" as="geometry">
            <mxPoint y="60" as="sourcePoint" />
            <mxPoint y="40" as="targetPoint" />
          </mxGeometry>
        </mxCell>
        <mxCell id="JYchThaX2a4gKTv78fk3-80" value="" style="endArrow=none;dashed=1;html=1;dashPattern=1 3;strokeWidth=2;fontFamily=Times New Roman;fontSize=12;" edge="1" parent="JYchThaX2a4gKTv78fk3-77">
          <mxGeometry width="50" height="50" relative="1" as="geometry">
            <mxPoint y="100" as="sourcePoint" />
            <mxPoint y="80" as="targetPoint" />
          </mxGeometry>
        </mxCell>
        <mxCell id="JYchThaX2a4gKTv78fk3-81" value="" style="group" vertex="1" connectable="0" parent="1">
          <mxGeometry x="500" y="90" height="100" as="geometry" />
        </mxCell>
        <mxCell id="JYchThaX2a4gKTv78fk3-82" value="" style="endArrow=none;dashed=1;html=1;dashPattern=1 3;strokeWidth=2;fontFamily=Times New Roman;fontSize=12;" edge="1" parent="JYchThaX2a4gKTv78fk3-81">
          <mxGeometry width="50" height="50" relative="1" as="geometry">
            <mxPoint as="sourcePoint" />
            <mxPoint y="20" as="targetPoint" />
          </mxGeometry>
        </mxCell>
        <mxCell id="JYchThaX2a4gKTv78fk3-83" value="" style="endArrow=none;dashed=1;html=1;dashPattern=1 3;strokeWidth=2;fontFamily=Times New Roman;fontSize=12;" edge="1" parent="JYchThaX2a4gKTv78fk3-81">
          <mxGeometry width="50" height="50" relative="1" as="geometry">
            <mxPoint y="60" as="sourcePoint" />
            <mxPoint y="40" as="targetPoint" />
          </mxGeometry>
        </mxCell>
        <mxCell id="JYchThaX2a4gKTv78fk3-84" value="" style="endArrow=none;dashed=1;html=1;dashPattern=1 3;strokeWidth=2;fontFamily=Times New Roman;fontSize=12;" edge="1" parent="JYchThaX2a4gKTv78fk3-81">
          <mxGeometry width="50" height="50" relative="1" as="geometry">
            <mxPoint y="100" as="sourcePoint" />
            <mxPoint y="80" as="targetPoint" />
          </mxGeometry>
        </mxCell>
        <mxCell id="JYchThaX2a4gKTv78fk3-90" value="" style="group" vertex="1" connectable="0" parent="1">
          <mxGeometry x="560" y="90" height="100" as="geometry" />
        </mxCell>
        <mxCell id="JYchThaX2a4gKTv78fk3-91" value="" style="endArrow=none;dashed=1;html=1;dashPattern=1 3;strokeWidth=2;fontFamily=Times New Roman;fontSize=12;" edge="1" parent="JYchThaX2a4gKTv78fk3-90">
          <mxGeometry width="50" height="50" relative="1" as="geometry">
            <mxPoint as="sourcePoint" />
            <mxPoint y="20" as="targetPoint" />
          </mxGeometry>
        </mxCell>
        <mxCell id="JYchThaX2a4gKTv78fk3-92" value="" style="endArrow=none;dashed=1;html=1;dashPattern=1 3;strokeWidth=2;fontFamily=Times New Roman;fontSize=12;" edge="1" parent="JYchThaX2a4gKTv78fk3-90">
          <mxGeometry width="50" height="50" relative="1" as="geometry">
            <mxPoint y="60" as="sourcePoint" />
            <mxPoint y="40" as="targetPoint" />
          </mxGeometry>
        </mxCell>
        <mxCell id="JYchThaX2a4gKTv78fk3-93" value="" style="endArrow=none;dashed=1;html=1;dashPattern=1 3;strokeWidth=2;fontFamily=Times New Roman;fontSize=12;" edge="1" parent="JYchThaX2a4gKTv78fk3-90">
          <mxGeometry width="50" height="50" relative="1" as="geometry">
            <mxPoint y="100" as="sourcePoint" />
            <mxPoint y="80" as="targetPoint" />
          </mxGeometry>
        </mxCell>
        <mxCell id="JYchThaX2a4gKTv78fk3-98" value="" style="group;rotation=-180;" vertex="1" connectable="0" parent="1">
          <mxGeometry x="570" y="80" width="10" height="120.01" as="geometry" />
        </mxCell>
        <mxCell id="JYchThaX2a4gKTv78fk3-99" value="" style="endArrow=none;html=1;" edge="1" parent="JYchThaX2a4gKTv78fk3-98">
          <mxGeometry width="50" height="50" relative="1" as="geometry">
            <mxPoint x="10" as="sourcePoint" />
            <mxPoint x="10" y="120" as="targetPoint" />
          </mxGeometry>
        </mxCell>
        <mxCell id="JYchThaX2a4gKTv78fk3-100" value="" style="endArrow=none;html=1;" edge="1" parent="JYchThaX2a4gKTv78fk3-98">
          <mxGeometry width="50" height="50" relative="1" as="geometry">
            <mxPoint x="10" as="sourcePoint" />
            <mxPoint as="targetPoint" />
          </mxGeometry>
        </mxCell>
        <mxCell id="JYchThaX2a4gKTv78fk3-101" value="" style="endArrow=none;html=1;" edge="1" parent="JYchThaX2a4gKTv78fk3-98">
          <mxGeometry width="50" height="50" relative="1" as="geometry">
            <mxPoint x="10" y="120" as="sourcePoint" />
            <mxPoint y="120" as="targetPoint" />
          </mxGeometry>
        </mxCell>
        <mxCell id="JYchThaX2a4gKTv78fk3-102" value="" style="group;rotation=0;" vertex="1" connectable="0" parent="1">
          <mxGeometry x="615" y="80" width="10" height="80" as="geometry" />
        </mxCell>
        <mxCell id="JYchThaX2a4gKTv78fk3-103" value="" style="endArrow=none;html=1;" edge="1" parent="JYchThaX2a4gKTv78fk3-102">
          <mxGeometry width="50" height="50" relative="1" as="geometry">
            <mxPoint x="1" y="80" as="sourcePoint" />
            <mxPoint x="1" as="targetPoint" />
          </mxGeometry>
        </mxCell>
        <mxCell id="JYchThaX2a4gKTv78fk3-104" value="" style="endArrow=none;html=1;" edge="1" parent="JYchThaX2a4gKTv78fk3-102">
          <mxGeometry width="50" height="50" relative="1" as="geometry">
            <mxPoint x="1" y="80" as="sourcePoint" />
            <mxPoint x="11" y="80" as="targetPoint" />
          </mxGeometry>
        </mxCell>
        <mxCell id="JYchThaX2a4gKTv78fk3-105" value="" style="endArrow=none;html=1;" edge="1" parent="JYchThaX2a4gKTv78fk3-102">
          <mxGeometry width="50" height="50" relative="1" as="geometry">
            <mxPoint x="1" as="sourcePoint" />
            <mxPoint x="11" as="targetPoint" />
          </mxGeometry>
        </mxCell>
        <mxCell id="JYchThaX2a4gKTv78fk3-114" value="" style="group;rotation=-180;" vertex="1" connectable="0" parent="1">
          <mxGeometry x="645.35" y="80" width="10" height="80" as="geometry" />
        </mxCell>
        <mxCell id="JYchThaX2a4gKTv78fk3-115" value="" style="endArrow=none;html=1;" edge="1" parent="JYchThaX2a4gKTv78fk3-114">
          <mxGeometry width="50" height="50" relative="1" as="geometry">
            <mxPoint x="9" as="sourcePoint" />
            <mxPoint x="9" y="80" as="targetPoint" />
          </mxGeometry>
        </mxCell>
        <mxCell id="JYchThaX2a4gKTv78fk3-116" value="" style="endArrow=none;html=1;" edge="1" parent="JYchThaX2a4gKTv78fk3-114">
          <mxGeometry width="50" height="50" relative="1" as="geometry">
            <mxPoint x="9" as="sourcePoint" />
            <mxPoint x="-1" as="targetPoint" />
          </mxGeometry>
        </mxCell>
        <mxCell id="JYchThaX2a4gKTv78fk3-117" value="" style="endArrow=none;html=1;" edge="1" parent="JYchThaX2a4gKTv78fk3-114">
          <mxGeometry width="50" height="50" relative="1" as="geometry">
            <mxPoint x="9" y="80" as="sourcePoint" />
            <mxPoint x="-1" y="80" as="targetPoint" />
          </mxGeometry>
        </mxCell>
        <mxCell id="JYchThaX2a4gKTv78fk3-119" value="$$\xi$$" style="text;html=1;align=center;verticalAlign=middle;resizable=0;points=[];autosize=1;fontSize=12;fontFamily=Times New Roman;" vertex="1" parent="1">
          <mxGeometry x="610" y="160" width="50" height="20" as="geometry" />
        </mxCell>
        <mxCell id="JYchThaX2a4gKTv78fk3-121" value="" style="endArrow=none;dashed=1;html=1;fontFamily=Times New Roman;fontSize=12;" edge="1" parent="1">
          <mxGeometry width="50" height="50" relative="1" as="geometry">
            <mxPoint x="635" y="150" as="sourcePoint" />
            <mxPoint x="635" y="90" as="targetPoint" />
          </mxGeometry>
        </mxCell>
        <mxCell id="JYchThaX2a4gKTv78fk3-126" value="Fitness of individual 2" style="text;html=1;align=center;verticalAlign=middle;resizable=0;points=[];autosize=1;fontSize=12;fontFamily=Times New Roman;" vertex="1" parent="1">
          <mxGeometry x="725" y="110" width="120" height="20" as="geometry" />
        </mxCell>
        <mxCell id="JYchThaX2a4gKTv78fk3-130" value="" style="endArrow=none;html=1;fontFamily=Times New Roman;fontSize=12;exitX=0.5;exitY=0;exitDx=0;exitDy=0;" edge="1" parent="1" source="JYchThaX2a4gKTv78fk3-33">
          <mxGeometry width="50" height="50" relative="1" as="geometry">
            <mxPoint x="500" y="160" as="sourcePoint" />
            <mxPoint x="200" y="40" as="targetPoint" />
          </mxGeometry>
        </mxCell>
        <mxCell id="JYchThaX2a4gKTv78fk3-131" value="" style="endArrow=none;html=1;fontFamily=Times New Roman;fontSize=12;" edge="1" parent="1">
          <mxGeometry width="50" height="50" relative="1" as="geometry">
            <mxPoint x="200" y="40" as="sourcePoint" />
            <mxPoint x="560" y="40" as="targetPoint" />
          </mxGeometry>
        </mxCell>
        <mxCell id="JYchThaX2a4gKTv78fk3-132" value="" style="endArrow=classic;html=1;fontFamily=Times New Roman;fontSize=12;" edge="1" parent="1">
          <mxGeometry width="50" height="50" relative="1" as="geometry">
            <mxPoint x="560" y="40" as="sourcePoint" />
            <mxPoint x="560" y="70" as="targetPoint" />
          </mxGeometry>
        </mxCell>
        <mxCell id="JYchThaX2a4gKTv78fk3-133" value="" style="endArrow=classic;html=1;fontFamily=Times New Roman;fontSize=12;" edge="1" parent="1">
          <mxGeometry width="50" height="50" relative="1" as="geometry">
            <mxPoint x="540" y="40" as="sourcePoint" />
            <mxPoint x="540" y="70" as="targetPoint" />
          </mxGeometry>
        </mxCell>
        <mxCell id="JYchThaX2a4gKTv78fk3-134" value="" style="endArrow=classic;html=1;fontFamily=Times New Roman;fontSize=12;" edge="1" parent="1">
          <mxGeometry width="50" height="50" relative="1" as="geometry">
            <mxPoint x="520" y="40" as="sourcePoint" />
            <mxPoint x="520" y="70" as="targetPoint" />
          </mxGeometry>
        </mxCell>
        <mxCell id="JYchThaX2a4gKTv78fk3-135" value="" style="endArrow=classic;html=1;fontFamily=Times New Roman;fontSize=12;" edge="1" parent="1">
          <mxGeometry width="50" height="50" relative="1" as="geometry">
            <mxPoint x="500" y="40" as="sourcePoint" />
            <mxPoint x="500" y="70" as="targetPoint" />
          </mxGeometry>
        </mxCell>
        <mxCell id="JYchThaX2a4gKTv78fk3-136" value="" style="endArrow=classic;html=1;fontFamily=Times New Roman;fontSize=12;" edge="1" parent="1">
          <mxGeometry width="50" height="50" relative="1" as="geometry">
            <mxPoint x="480" y="40" as="sourcePoint" />
            <mxPoint x="480" y="70" as="targetPoint" />
          </mxGeometry>
        </mxCell>
        <mxCell id="JYchThaX2a4gKTv78fk3-137" value="" style="endArrow=classic;html=1;fontFamily=Times New Roman;fontSize=12;" edge="1" parent="1">
          <mxGeometry width="50" height="50" relative="1" as="geometry">
            <mxPoint x="460" y="40" as="sourcePoint" />
            <mxPoint x="460" y="70" as="targetPoint" />
          </mxGeometry>
        </mxCell>
        <mxCell id="JYchThaX2a4gKTv78fk3-139" value="$$p_1$$" style="text;html=1;strokeColor=none;fillColor=none;align=center;verticalAlign=middle;whiteSpace=wrap;rounded=0;dashed=1;fontFamily=Times New Roman;fontSize=12;" vertex="1" parent="1">
          <mxGeometry x="455" y="10" width="10" height="20" as="geometry" />
        </mxCell>
        <mxCell id="JYchThaX2a4gKTv78fk3-140" value="$$p_k$$" style="text;html=1;strokeColor=none;fillColor=none;align=center;verticalAlign=middle;whiteSpace=wrap;rounded=0;dashed=1;fontFamily=Times New Roman;fontSize=12;" vertex="1" parent="1">
          <mxGeometry x="555" y="10" width="10" height="20" as="geometry" />
        </mxCell>
        <mxCell id="JYchThaX2a4gKTv78fk3-141" value="$$p_2$$" style="text;html=1;strokeColor=none;fillColor=none;align=center;verticalAlign=middle;whiteSpace=wrap;rounded=0;dashed=1;fontFamily=Times New Roman;fontSize=12;" vertex="1" parent="1">
          <mxGeometry x="475" y="10" width="10" height="20" as="geometry" />
        </mxCell>
        <mxCell id="JYchThaX2a4gKTv78fk3-142" value="$$\dots$$" style="text;html=1;strokeColor=none;fillColor=none;align=center;verticalAlign=middle;whiteSpace=wrap;rounded=0;dashed=1;fontFamily=Times New Roman;fontSize=12;" vertex="1" parent="1">
          <mxGeometry x="500" y="10" width="40" height="20" as="geometry" />
        </mxCell>
        <mxCell id="JYchThaX2a4gKTv78fk3-209" style="edgeStyle=orthogonalEdgeStyle;rounded=0;orthogonalLoop=1;jettySize=auto;html=1;fontFamily=Times New Roman;fontSize=12;" edge="1" parent="1" source="JYchThaX2a4gKTv78fk3-210">
          <mxGeometry relative="1" as="geometry">
            <mxPoint x="720" y="283" as="targetPoint" />
          </mxGeometry>
        </mxCell>
        <mxCell id="JYchThaX2a4gKTv78fk3-210" value="" style="ellipse;whiteSpace=wrap;html=1;fontFamily=Times New Roman;fontSize=12;rotation=90;labelBorderColor=none;dashed=1;" vertex="1" parent="1">
          <mxGeometry x="575" y="243" width="120" height="80" as="geometry" />
        </mxCell>
        <mxCell id="JYchThaX2a4gKTv78fk3-211" value="" style="group;rotation=-1;" vertex="1" connectable="0" parent="1">
          <mxGeometry x="440" y="240" width="10" height="120.01" as="geometry" />
        </mxCell>
        <mxCell id="JYchThaX2a4gKTv78fk3-212" value="" style="endArrow=none;html=1;" edge="1" parent="JYchThaX2a4gKTv78fk3-211">
          <mxGeometry width="50" height="50" relative="1" as="geometry">
            <mxPoint x="1" y="120.00999999999999" as="sourcePoint" />
            <mxPoint x="-1" as="targetPoint" />
          </mxGeometry>
        </mxCell>
        <mxCell id="JYchThaX2a4gKTv78fk3-213" value="" style="endArrow=none;html=1;" edge="1" parent="JYchThaX2a4gKTv78fk3-211">
          <mxGeometry width="50" height="50" relative="1" as="geometry">
            <mxPoint x="1" y="120.00999999999999" as="sourcePoint" />
            <mxPoint x="11" y="120.00999999999999" as="targetPoint" />
          </mxGeometry>
        </mxCell>
        <mxCell id="JYchThaX2a4gKTv78fk3-214" value="" style="endArrow=none;html=1;" edge="1" parent="JYchThaX2a4gKTv78fk3-211">
          <mxGeometry width="50" height="50" relative="1" as="geometry">
            <mxPoint x="-1" as="sourcePoint" />
            <mxPoint x="9" as="targetPoint" />
          </mxGeometry>
        </mxCell>
        <mxCell id="JYchThaX2a4gKTv78fk3-215" value="" style="group" vertex="1" connectable="0" parent="1">
          <mxGeometry x="320" y="241.01" width="40" height="120" as="geometry" />
        </mxCell>
        <mxCell id="JYchThaX2a4gKTv78fk3-216" value="" style="endArrow=none;html=1;" edge="1" parent="JYchThaX2a4gKTv78fk3-215">
          <mxGeometry width="50" height="50" relative="1" as="geometry">
            <mxPoint y="120" as="sourcePoint" />
            <mxPoint as="targetPoint" />
          </mxGeometry>
        </mxCell>
        <mxCell id="JYchThaX2a4gKTv78fk3-217" value="" style="endArrow=none;html=1;" edge="1" parent="JYchThaX2a4gKTv78fk3-215">
          <mxGeometry width="50" height="50" relative="1" as="geometry">
            <mxPoint y="120" as="sourcePoint" />
            <mxPoint x="10" y="120" as="targetPoint" />
          </mxGeometry>
        </mxCell>
        <mxCell id="JYchThaX2a4gKTv78fk3-218" value="" style="endArrow=none;html=1;" edge="1" parent="JYchThaX2a4gKTv78fk3-215">
          <mxGeometry width="50" height="50" relative="1" as="geometry">
            <mxPoint as="sourcePoint" />
            <mxPoint x="10" as="targetPoint" />
          </mxGeometry>
        </mxCell>
        <mxCell id="JYchThaX2a4gKTv78fk3-219" value="" style="group;rotation=-180;" vertex="1" connectable="0" parent="JYchThaX2a4gKTv78fk3-215">
          <mxGeometry x="30" width="10" height="120" as="geometry" />
        </mxCell>
        <mxCell id="JYchThaX2a4gKTv78fk3-220" value="" style="endArrow=none;html=1;" edge="1" parent="JYchThaX2a4gKTv78fk3-219">
          <mxGeometry width="50" height="50" relative="1" as="geometry">
            <mxPoint x="10" as="sourcePoint" />
            <mxPoint x="10" y="120" as="targetPoint" />
          </mxGeometry>
        </mxCell>
        <mxCell id="JYchThaX2a4gKTv78fk3-221" value="" style="endArrow=none;html=1;" edge="1" parent="JYchThaX2a4gKTv78fk3-219">
          <mxGeometry width="50" height="50" relative="1" as="geometry">
            <mxPoint x="10" as="sourcePoint" />
            <mxPoint as="targetPoint" />
          </mxGeometry>
        </mxCell>
        <mxCell id="JYchThaX2a4gKTv78fk3-222" value="" style="endArrow=none;html=1;" edge="1" parent="JYchThaX2a4gKTv78fk3-219">
          <mxGeometry width="50" height="50" relative="1" as="geometry">
            <mxPoint x="10" y="120" as="sourcePoint" />
            <mxPoint y="120" as="targetPoint" />
          </mxGeometry>
        </mxCell>
        <mxCell id="JYchThaX2a4gKTv78fk3-223" value="" style="endArrow=none;dashed=1;html=1;dashPattern=1 3;strokeWidth=2;" edge="1" parent="JYchThaX2a4gKTv78fk3-215">
          <mxGeometry width="50" height="50" relative="1" as="geometry">
            <mxPoint x="20" y="30" as="sourcePoint" />
            <mxPoint x="20" y="10" as="targetPoint" />
          </mxGeometry>
        </mxCell>
        <mxCell id="JYchThaX2a4gKTv78fk3-224" value="" style="endArrow=none;dashed=1;html=1;dashPattern=1 3;strokeWidth=2;" edge="1" parent="JYchThaX2a4gKTv78fk3-215">
          <mxGeometry width="50" height="50" relative="1" as="geometry">
            <mxPoint x="20" y="70" as="sourcePoint" />
            <mxPoint x="20" y="50" as="targetPoint" />
          </mxGeometry>
        </mxCell>
        <mxCell id="JYchThaX2a4gKTv78fk3-225" value="" style="endArrow=none;dashed=1;html=1;dashPattern=1 3;strokeWidth=2;" edge="1" parent="JYchThaX2a4gKTv78fk3-215">
          <mxGeometry width="50" height="50" relative="1" as="geometry">
            <mxPoint x="20" y="110" as="sourcePoint" />
            <mxPoint x="20" y="90" as="targetPoint" />
          </mxGeometry>
        </mxCell>
        <mxCell id="JYchThaX2a4gKTv78fk3-226" value="" style="shape=curlyBracket;whiteSpace=wrap;html=1;rounded=1;fontFamily=Times New Roman;fontSize=12;" vertex="1" parent="1">
          <mxGeometry x="301" y="251.01" width="10" height="19.99" as="geometry" />
        </mxCell>
        <mxCell id="JYchThaX2a4gKTv78fk3-227" value="" style="shape=curlyBracket;whiteSpace=wrap;html=1;rounded=1;fontFamily=Times New Roman;fontSize=12;" vertex="1" parent="1">
          <mxGeometry x="300" y="290.01" width="10" height="19.99" as="geometry" />
        </mxCell>
        <mxCell id="JYchThaX2a4gKTv78fk3-228" value="" style="shape=curlyBracket;whiteSpace=wrap;html=1;rounded=1;fontFamily=Times New Roman;fontSize=12;" vertex="1" parent="1">
          <mxGeometry x="300" y="331.01" width="10" height="19.99" as="geometry" />
        </mxCell>
        <mxCell id="JYchThaX2a4gKTv78fk3-229" value="$$\dot{x}_1$$" style="text;html=1;align=center;verticalAlign=middle;resizable=0;points=[];autosize=1;fontSize=12;fontFamily=Times New Roman;" vertex="1" parent="1">
          <mxGeometry x="240" y="251" width="90" height="20" as="geometry" />
        </mxCell>
        <mxCell id="JYchThaX2a4gKTv78fk3-230" value="$$\dot{x}_2$$" style="text;html=1;align=center;verticalAlign=middle;resizable=0;points=[];autosize=1;fontSize=12;fontFamily=Times New Roman;" vertex="1" parent="1">
          <mxGeometry x="240" y="291.01" width="90" height="20" as="geometry" />
        </mxCell>
        <mxCell id="JYchThaX2a4gKTv78fk3-231" value="$$\dot{x}_3$$" style="text;html=1;align=center;verticalAlign=middle;resizable=0;points=[];autosize=1;fontSize=12;fontFamily=Times New Roman;" vertex="1" parent="1">
          <mxGeometry x="240" y="331" width="90" height="20" as="geometry" />
        </mxCell>
        <mxCell id="JYchThaX2a4gKTv78fk3-232" value="$$=$$" style="text;html=1;align=center;verticalAlign=middle;resizable=0;points=[];autosize=1;fontSize=12;fontFamily=Times New Roman;" vertex="1" parent="1">
          <mxGeometry x="347" y="291.02" width="50" height="20" as="geometry" />
        </mxCell>
        <mxCell id="JYchThaX2a4gKTv78fk3-233" value="" style="shape=curlyBracket;whiteSpace=wrap;html=1;rounded=1;fontFamily=Times New Roman;fontSize=12;" vertex="1" parent="1">
          <mxGeometry x="420" y="329.99" width="10" height="19.99" as="geometry" />
        </mxCell>
        <mxCell id="JYchThaX2a4gKTv78fk3-234" value="" style="shape=curlyBracket;whiteSpace=wrap;html=1;rounded=1;fontFamily=Times New Roman;fontSize=12;" vertex="1" parent="1">
          <mxGeometry x="420" y="290.02" width="10" height="19.99" as="geometry" />
        </mxCell>
        <mxCell id="JYchThaX2a4gKTv78fk3-235" value="" style="shape=curlyBracket;whiteSpace=wrap;html=1;rounded=1;fontFamily=Times New Roman;fontSize=12;" vertex="1" parent="1">
          <mxGeometry x="420" y="249.99" width="10" height="19.99" as="geometry" />
        </mxCell>
        <mxCell id="JYchThaX2a4gKTv78fk3-236" value="$$\Theta(\pmb{X}_1)$$" style="text;html=1;align=center;verticalAlign=middle;resizable=0;points=[];autosize=1;fontSize=12;fontFamily=Times New Roman;" vertex="1" parent="1">
          <mxGeometry x="330" y="251" width="140" height="20" as="geometry" />
        </mxCell>
        <mxCell id="JYchThaX2a4gKTv78fk3-237" value="$$\Theta(\pmb{X}_3)$$" style="text;html=1;align=center;verticalAlign=middle;resizable=0;points=[];autosize=1;fontSize=12;fontFamily=Times New Roman;" vertex="1" parent="1">
          <mxGeometry x="330" y="331.01" width="140" height="20" as="geometry" />
        </mxCell>
        <mxCell id="JYchThaX2a4gKTv78fk3-238" value="$$\Theta(\pmb{X}_2)$$" style="text;html=1;align=center;verticalAlign=middle;resizable=0;points=[];autosize=1;fontSize=12;fontFamily=Times New Roman;" vertex="1" parent="1">
          <mxGeometry x="330" y="290.02" width="140" height="20" as="geometry" />
        </mxCell>
        <mxCell id="JYchThaX2a4gKTv78fk3-239" value="" style="group" vertex="1" connectable="0" parent="1">
          <mxGeometry x="460" y="251.01" height="100" as="geometry" />
        </mxCell>
        <mxCell id="JYchThaX2a4gKTv78fk3-240" value="" style="endArrow=none;dashed=1;html=1;dashPattern=1 3;strokeWidth=2;fontFamily=Times New Roman;fontSize=12;" edge="1" parent="JYchThaX2a4gKTv78fk3-239">
          <mxGeometry width="50" height="50" relative="1" as="geometry">
            <mxPoint as="sourcePoint" />
            <mxPoint y="20" as="targetPoint" />
          </mxGeometry>
        </mxCell>
        <mxCell id="JYchThaX2a4gKTv78fk3-241" value="" style="endArrow=none;dashed=1;html=1;dashPattern=1 3;strokeWidth=2;fontFamily=Times New Roman;fontSize=12;" edge="1" parent="JYchThaX2a4gKTv78fk3-239">
          <mxGeometry width="50" height="50" relative="1" as="geometry">
            <mxPoint y="60" as="sourcePoint" />
            <mxPoint y="40" as="targetPoint" />
          </mxGeometry>
        </mxCell>
        <mxCell id="JYchThaX2a4gKTv78fk3-242" value="" style="endArrow=none;dashed=1;html=1;dashPattern=1 3;strokeWidth=2;fontFamily=Times New Roman;fontSize=12;" edge="1" parent="JYchThaX2a4gKTv78fk3-239">
          <mxGeometry width="50" height="50" relative="1" as="geometry">
            <mxPoint y="100" as="sourcePoint" />
            <mxPoint y="80" as="targetPoint" />
          </mxGeometry>
        </mxCell>
        <mxCell id="JYchThaX2a4gKTv78fk3-243" value="" style="group" vertex="1" connectable="0" parent="1">
          <mxGeometry x="480" y="251.01" height="100" as="geometry" />
        </mxCell>
        <mxCell id="JYchThaX2a4gKTv78fk3-244" value="" style="endArrow=none;dashed=1;html=1;dashPattern=1 3;strokeWidth=2;fontFamily=Times New Roman;fontSize=12;" edge="1" parent="JYchThaX2a4gKTv78fk3-243">
          <mxGeometry width="50" height="50" relative="1" as="geometry">
            <mxPoint as="sourcePoint" />
            <mxPoint y="20" as="targetPoint" />
          </mxGeometry>
        </mxCell>
        <mxCell id="JYchThaX2a4gKTv78fk3-245" value="" style="endArrow=none;dashed=1;html=1;dashPattern=1 3;strokeWidth=2;fontFamily=Times New Roman;fontSize=12;" edge="1" parent="JYchThaX2a4gKTv78fk3-243">
          <mxGeometry width="50" height="50" relative="1" as="geometry">
            <mxPoint y="60" as="sourcePoint" />
            <mxPoint y="40" as="targetPoint" />
          </mxGeometry>
        </mxCell>
        <mxCell id="JYchThaX2a4gKTv78fk3-246" value="" style="endArrow=none;dashed=1;html=1;dashPattern=1 3;strokeWidth=2;fontFamily=Times New Roman;fontSize=12;" edge="1" parent="JYchThaX2a4gKTv78fk3-243">
          <mxGeometry width="50" height="50" relative="1" as="geometry">
            <mxPoint y="100" as="sourcePoint" />
            <mxPoint y="80" as="targetPoint" />
          </mxGeometry>
        </mxCell>
        <mxCell id="JYchThaX2a4gKTv78fk3-247" value="" style="group" vertex="1" connectable="0" parent="1">
          <mxGeometry x="540" y="251.01" height="100" as="geometry" />
        </mxCell>
        <mxCell id="JYchThaX2a4gKTv78fk3-248" value="" style="endArrow=none;dashed=1;html=1;dashPattern=1 3;strokeWidth=2;fontFamily=Times New Roman;fontSize=12;" edge="1" parent="JYchThaX2a4gKTv78fk3-247">
          <mxGeometry width="50" height="50" relative="1" as="geometry">
            <mxPoint as="sourcePoint" />
            <mxPoint y="20" as="targetPoint" />
          </mxGeometry>
        </mxCell>
        <mxCell id="JYchThaX2a4gKTv78fk3-249" value="" style="endArrow=none;dashed=1;html=1;dashPattern=1 3;strokeWidth=2;fontFamily=Times New Roman;fontSize=12;" edge="1" parent="JYchThaX2a4gKTv78fk3-247">
          <mxGeometry width="50" height="50" relative="1" as="geometry">
            <mxPoint y="60" as="sourcePoint" />
            <mxPoint y="40" as="targetPoint" />
          </mxGeometry>
        </mxCell>
        <mxCell id="JYchThaX2a4gKTv78fk3-250" value="" style="endArrow=none;dashed=1;html=1;dashPattern=1 3;strokeWidth=2;fontFamily=Times New Roman;fontSize=12;" edge="1" parent="JYchThaX2a4gKTv78fk3-247">
          <mxGeometry width="50" height="50" relative="1" as="geometry">
            <mxPoint y="100" as="sourcePoint" />
            <mxPoint y="80" as="targetPoint" />
          </mxGeometry>
        </mxCell>
        <mxCell id="JYchThaX2a4gKTv78fk3-251" value="" style="group" vertex="1" connectable="0" parent="1">
          <mxGeometry x="520" y="251.01" height="100" as="geometry" />
        </mxCell>
        <mxCell id="JYchThaX2a4gKTv78fk3-252" value="" style="endArrow=none;dashed=1;html=1;dashPattern=1 3;strokeWidth=2;fontFamily=Times New Roman;fontSize=12;" edge="1" parent="JYchThaX2a4gKTv78fk3-251">
          <mxGeometry width="50" height="50" relative="1" as="geometry">
            <mxPoint as="sourcePoint" />
            <mxPoint y="20" as="targetPoint" />
          </mxGeometry>
        </mxCell>
        <mxCell id="JYchThaX2a4gKTv78fk3-253" value="" style="endArrow=none;dashed=1;html=1;dashPattern=1 3;strokeWidth=2;fontFamily=Times New Roman;fontSize=12;" edge="1" parent="JYchThaX2a4gKTv78fk3-251">
          <mxGeometry width="50" height="50" relative="1" as="geometry">
            <mxPoint y="60" as="sourcePoint" />
            <mxPoint y="40" as="targetPoint" />
          </mxGeometry>
        </mxCell>
        <mxCell id="JYchThaX2a4gKTv78fk3-254" value="" style="endArrow=none;dashed=1;html=1;dashPattern=1 3;strokeWidth=2;fontFamily=Times New Roman;fontSize=12;" edge="1" parent="JYchThaX2a4gKTv78fk3-251">
          <mxGeometry width="50" height="50" relative="1" as="geometry">
            <mxPoint y="100" as="sourcePoint" />
            <mxPoint y="80" as="targetPoint" />
          </mxGeometry>
        </mxCell>
        <mxCell id="JYchThaX2a4gKTv78fk3-255" value="" style="group" vertex="1" connectable="0" parent="1">
          <mxGeometry x="500" y="251.01" height="100" as="geometry" />
        </mxCell>
        <mxCell id="JYchThaX2a4gKTv78fk3-256" value="" style="endArrow=none;dashed=1;html=1;dashPattern=1 3;strokeWidth=2;fontFamily=Times New Roman;fontSize=12;" edge="1" parent="JYchThaX2a4gKTv78fk3-255">
          <mxGeometry width="50" height="50" relative="1" as="geometry">
            <mxPoint as="sourcePoint" />
            <mxPoint y="20" as="targetPoint" />
          </mxGeometry>
        </mxCell>
        <mxCell id="JYchThaX2a4gKTv78fk3-257" value="" style="endArrow=none;dashed=1;html=1;dashPattern=1 3;strokeWidth=2;fontFamily=Times New Roman;fontSize=12;" edge="1" parent="JYchThaX2a4gKTv78fk3-255">
          <mxGeometry width="50" height="50" relative="1" as="geometry">
            <mxPoint y="60" as="sourcePoint" />
            <mxPoint y="40" as="targetPoint" />
          </mxGeometry>
        </mxCell>
        <mxCell id="JYchThaX2a4gKTv78fk3-258" value="" style="endArrow=none;dashed=1;html=1;dashPattern=1 3;strokeWidth=2;fontFamily=Times New Roman;fontSize=12;" edge="1" parent="JYchThaX2a4gKTv78fk3-255">
          <mxGeometry width="50" height="50" relative="1" as="geometry">
            <mxPoint y="100" as="sourcePoint" />
            <mxPoint y="80" as="targetPoint" />
          </mxGeometry>
        </mxCell>
        <mxCell id="JYchThaX2a4gKTv78fk3-259" value="" style="group" vertex="1" connectable="0" parent="1">
          <mxGeometry x="560" y="251.01" height="100" as="geometry" />
        </mxCell>
        <mxCell id="JYchThaX2a4gKTv78fk3-260" value="" style="endArrow=none;dashed=1;html=1;dashPattern=1 3;strokeWidth=2;fontFamily=Times New Roman;fontSize=12;" edge="1" parent="JYchThaX2a4gKTv78fk3-259">
          <mxGeometry width="50" height="50" relative="1" as="geometry">
            <mxPoint as="sourcePoint" />
            <mxPoint y="20" as="targetPoint" />
          </mxGeometry>
        </mxCell>
        <mxCell id="JYchThaX2a4gKTv78fk3-261" value="" style="endArrow=none;dashed=1;html=1;dashPattern=1 3;strokeWidth=2;fontFamily=Times New Roman;fontSize=12;" edge="1" parent="JYchThaX2a4gKTv78fk3-259">
          <mxGeometry width="50" height="50" relative="1" as="geometry">
            <mxPoint y="60" as="sourcePoint" />
            <mxPoint y="40" as="targetPoint" />
          </mxGeometry>
        </mxCell>
        <mxCell id="JYchThaX2a4gKTv78fk3-262" value="" style="endArrow=none;dashed=1;html=1;dashPattern=1 3;strokeWidth=2;fontFamily=Times New Roman;fontSize=12;" edge="1" parent="JYchThaX2a4gKTv78fk3-259">
          <mxGeometry width="50" height="50" relative="1" as="geometry">
            <mxPoint y="100" as="sourcePoint" />
            <mxPoint y="80" as="targetPoint" />
          </mxGeometry>
        </mxCell>
        <mxCell id="JYchThaX2a4gKTv78fk3-263" value="" style="group;rotation=-180;" vertex="1" connectable="0" parent="1">
          <mxGeometry x="570" y="241.01" width="10" height="120.01" as="geometry" />
        </mxCell>
        <mxCell id="JYchThaX2a4gKTv78fk3-264" value="" style="endArrow=none;html=1;" edge="1" parent="JYchThaX2a4gKTv78fk3-263">
          <mxGeometry width="50" height="50" relative="1" as="geometry">
            <mxPoint x="10" as="sourcePoint" />
            <mxPoint x="10" y="120" as="targetPoint" />
          </mxGeometry>
        </mxCell>
        <mxCell id="JYchThaX2a4gKTv78fk3-265" value="" style="endArrow=none;html=1;" edge="1" parent="JYchThaX2a4gKTv78fk3-263">
          <mxGeometry width="50" height="50" relative="1" as="geometry">
            <mxPoint x="10" as="sourcePoint" />
            <mxPoint as="targetPoint" />
          </mxGeometry>
        </mxCell>
        <mxCell id="JYchThaX2a4gKTv78fk3-266" value="" style="endArrow=none;html=1;" edge="1" parent="JYchThaX2a4gKTv78fk3-263">
          <mxGeometry width="50" height="50" relative="1" as="geometry">
            <mxPoint x="10" y="120" as="sourcePoint" />
            <mxPoint y="120" as="targetPoint" />
          </mxGeometry>
        </mxCell>
        <mxCell id="JYchThaX2a4gKTv78fk3-267" value="" style="group;rotation=0;" vertex="1" connectable="0" parent="1">
          <mxGeometry x="615" y="241.01" width="10" height="80" as="geometry" />
        </mxCell>
        <mxCell id="JYchThaX2a4gKTv78fk3-268" value="" style="endArrow=none;html=1;" edge="1" parent="JYchThaX2a4gKTv78fk3-267">
          <mxGeometry width="50" height="50" relative="1" as="geometry">
            <mxPoint x="1" y="80" as="sourcePoint" />
            <mxPoint x="1" as="targetPoint" />
          </mxGeometry>
        </mxCell>
        <mxCell id="JYchThaX2a4gKTv78fk3-269" value="" style="endArrow=none;html=1;" edge="1" parent="JYchThaX2a4gKTv78fk3-267">
          <mxGeometry width="50" height="50" relative="1" as="geometry">
            <mxPoint x="1" y="80" as="sourcePoint" />
            <mxPoint x="11" y="80" as="targetPoint" />
          </mxGeometry>
        </mxCell>
        <mxCell id="JYchThaX2a4gKTv78fk3-270" value="" style="endArrow=none;html=1;" edge="1" parent="JYchThaX2a4gKTv78fk3-267">
          <mxGeometry width="50" height="50" relative="1" as="geometry">
            <mxPoint x="1" as="sourcePoint" />
            <mxPoint x="11" as="targetPoint" />
          </mxGeometry>
        </mxCell>
        <mxCell id="JYchThaX2a4gKTv78fk3-271" value="" style="group;rotation=-180;" vertex="1" connectable="0" parent="1">
          <mxGeometry x="645.35" y="241.01" width="10" height="80" as="geometry" />
        </mxCell>
        <mxCell id="JYchThaX2a4gKTv78fk3-272" value="" style="endArrow=none;html=1;" edge="1" parent="JYchThaX2a4gKTv78fk3-271">
          <mxGeometry width="50" height="50" relative="1" as="geometry">
            <mxPoint x="9" as="sourcePoint" />
            <mxPoint x="9" y="80" as="targetPoint" />
          </mxGeometry>
        </mxCell>
        <mxCell id="JYchThaX2a4gKTv78fk3-273" value="" style="endArrow=none;html=1;" edge="1" parent="JYchThaX2a4gKTv78fk3-271">
          <mxGeometry width="50" height="50" relative="1" as="geometry">
            <mxPoint x="9" as="sourcePoint" />
            <mxPoint x="-1" as="targetPoint" />
          </mxGeometry>
        </mxCell>
        <mxCell id="JYchThaX2a4gKTv78fk3-274" value="" style="endArrow=none;html=1;" edge="1" parent="JYchThaX2a4gKTv78fk3-271">
          <mxGeometry width="50" height="50" relative="1" as="geometry">
            <mxPoint x="9" y="80" as="sourcePoint" />
            <mxPoint x="-1" y="80" as="targetPoint" />
          </mxGeometry>
        </mxCell>
        <mxCell id="JYchThaX2a4gKTv78fk3-275" value="$$\xi$$" style="text;html=1;align=center;verticalAlign=middle;resizable=0;points=[];autosize=1;fontSize=12;fontFamily=Times New Roman;" vertex="1" parent="1">
          <mxGeometry x="610" y="321.01" width="50" height="20" as="geometry" />
        </mxCell>
        <mxCell id="JYchThaX2a4gKTv78fk3-276" value="" style="endArrow=none;dashed=1;html=1;fontFamily=Times New Roman;fontSize=12;" edge="1" parent="1">
          <mxGeometry width="50" height="50" relative="1" as="geometry">
            <mxPoint x="635" y="311.01" as="sourcePoint" />
            <mxPoint x="635" y="251.01" as="targetPoint" />
          </mxGeometry>
        </mxCell>
        <mxCell id="JYchThaX2a4gKTv78fk3-277" value="Fitness of individual 3" style="text;html=1;align=center;verticalAlign=middle;resizable=0;points=[];autosize=1;fontSize=12;fontFamily=Times New Roman;" vertex="1" parent="1">
          <mxGeometry x="725" y="271.01" width="120" height="20" as="geometry" />
        </mxCell>
        <mxCell id="JYchThaX2a4gKTv78fk3-278" value="" style="endArrow=none;html=1;fontFamily=Times New Roman;fontSize=12;exitX=1;exitY=0.5;exitDx=0;exitDy=0;" edge="1" parent="1" source="JYchThaX2a4gKTv78fk3-34">
          <mxGeometry width="50" height="50" relative="1" as="geometry">
            <mxPoint x="500" y="160" as="sourcePoint" />
            <mxPoint x="200" y="400" as="targetPoint" />
          </mxGeometry>
        </mxCell>
        <mxCell id="JYchThaX2a4gKTv78fk3-279" value="" style="endArrow=none;html=1;fontFamily=Times New Roman;fontSize=12;" edge="1" parent="1">
          <mxGeometry width="50" height="50" relative="1" as="geometry">
            <mxPoint x="200" y="400" as="sourcePoint" />
            <mxPoint x="560" y="400" as="targetPoint" />
          </mxGeometry>
        </mxCell>
        <mxCell id="JYchThaX2a4gKTv78fk3-280" value="" style="endArrow=classic;html=1;fontFamily=Times New Roman;fontSize=12;" edge="1" parent="1">
          <mxGeometry width="50" height="50" relative="1" as="geometry">
            <mxPoint x="560" y="400" as="sourcePoint" />
            <mxPoint x="560" y="370" as="targetPoint" />
          </mxGeometry>
        </mxCell>
        <mxCell id="JYchThaX2a4gKTv78fk3-281" value="" style="endArrow=classic;html=1;fontFamily=Times New Roman;fontSize=12;" edge="1" parent="1">
          <mxGeometry width="50" height="50" relative="1" as="geometry">
            <mxPoint x="540" y="400" as="sourcePoint" />
            <mxPoint x="540" y="370" as="targetPoint" />
          </mxGeometry>
        </mxCell>
        <mxCell id="JYchThaX2a4gKTv78fk3-282" value="" style="endArrow=classic;html=1;fontFamily=Times New Roman;fontSize=12;" edge="1" parent="1">
          <mxGeometry width="50" height="50" relative="1" as="geometry">
            <mxPoint x="520" y="400" as="sourcePoint" />
            <mxPoint x="520" y="370" as="targetPoint" />
          </mxGeometry>
        </mxCell>
        <mxCell id="JYchThaX2a4gKTv78fk3-283" value="" style="endArrow=classic;html=1;fontFamily=Times New Roman;fontSize=12;" edge="1" parent="1">
          <mxGeometry width="50" height="50" relative="1" as="geometry">
            <mxPoint x="500" y="400" as="sourcePoint" />
            <mxPoint x="500" y="370" as="targetPoint" />
          </mxGeometry>
        </mxCell>
        <mxCell id="JYchThaX2a4gKTv78fk3-284" value="" style="endArrow=classic;html=1;fontFamily=Times New Roman;fontSize=12;" edge="1" parent="1">
          <mxGeometry width="50" height="50" relative="1" as="geometry">
            <mxPoint x="480" y="400" as="sourcePoint" />
            <mxPoint x="480" y="370" as="targetPoint" />
          </mxGeometry>
        </mxCell>
        <mxCell id="JYchThaX2a4gKTv78fk3-285" value="" style="endArrow=classic;html=1;fontFamily=Times New Roman;fontSize=12;" edge="1" parent="1">
          <mxGeometry width="50" height="50" relative="1" as="geometry">
            <mxPoint x="460" y="400" as="sourcePoint" />
            <mxPoint x="460" y="370" as="targetPoint" />
          </mxGeometry>
        </mxCell>
        <mxCell id="JYchThaX2a4gKTv78fk3-286" value="$$p&#39;_1$$" style="text;html=1;strokeColor=none;fillColor=none;align=center;verticalAlign=middle;whiteSpace=wrap;rounded=0;dashed=1;fontFamily=Times New Roman;fontSize=12;" vertex="1" parent="1">
          <mxGeometry x="455" y="410" width="10" height="20" as="geometry" />
        </mxCell>
        <mxCell id="JYchThaX2a4gKTv78fk3-287" value="$$p&#39;_2$$" style="text;html=1;strokeColor=none;fillColor=none;align=center;verticalAlign=middle;whiteSpace=wrap;rounded=0;dashed=1;fontFamily=Times New Roman;fontSize=12;" vertex="1" parent="1">
          <mxGeometry x="475" y="410" width="10" height="20" as="geometry" />
        </mxCell>
        <mxCell id="JYchThaX2a4gKTv78fk3-288" value="$$p&#39;_k$$" style="text;html=1;strokeColor=none;fillColor=none;align=center;verticalAlign=middle;whiteSpace=wrap;rounded=0;dashed=1;fontFamily=Times New Roman;fontSize=12;" vertex="1" parent="1">
          <mxGeometry x="555" y="410" width="10" height="20" as="geometry" />
        </mxCell>
        <mxCell id="JYchThaX2a4gKTv78fk3-289" value="$$\dots$$" style="text;html=1;strokeColor=none;fillColor=none;align=center;verticalAlign=middle;whiteSpace=wrap;rounded=0;dashed=1;fontFamily=Times New Roman;fontSize=12;" vertex="1" parent="1">
          <mxGeometry x="500" y="410" width="40" height="20" as="geometry" />
        </mxCell>
      </root>
    </mxGraphModel>
  </diagram>
</mxfile>
